<svg xmlns="http://www.w3.org/2000/svg" viewBox="0 0 800 200"><defs><style>.cls-1{fill:#f5f5f5;}.cls-2{fill:#ff5d18;}</style></defs><title>Arte</title><g id="BG"><rect class="cls-1" width="800" height="200"/></g><g id="ARTE"><path class="cls-2" d="M300.69,101.59h-1.06c-7.05,0-14.11,0-21.16,0-1,0-1.23-.24-1.06-1.26,1.28-7.66,5.82-12.79,12.53-16.23a38.27,38.27,0,0,1,13.92-3.77,70.62,70.62,0,0,1,16.37.25c5.18.7,10.23,1.93,14.72,4.79,3.26,2.08,5.74,4.82,6.6,8.7a19.45,19.45,0,0,1,.43,4.14c0,10.47,0,20.94,0,31.41,0,1-.25,1.33-1.29,1.32q-11-.06-22,0c-1.06,0-1.28-.37-1.27-1.34,0-3.86,0-7.71,0-11.57,0-.43,0-.86,0-1.51l-2.73.92c-3.1,1-6.21,2-9.28,3.1a6,6,0,0,0-4.35,5.15,5.14,5.14,0,0,0,1.12,3.58c.35.5.79,1,1.36,1.64H281.42a6.83,6.83,0,0,1-6.55-5.14,13,13,0,0,1,5.74-13.62,32,32,0,0,1,11.47-4.25c4.86-.89,9.78-1.47,14.65-2.29,2.66-.45,5.31-1,7.94-1.68a3.21,3.21,0,0,0,2.74-2.79,4.3,4.3,0,0,0-1.83-4.43c-2.3-1.52-4.9-1.63-7.52-1.43a12.66,12.66,0,0,0-2.9.58A6,6,0,0,0,300.69,101.59Z"/><path class="cls-2" d="M502.76,118.37c-6.94,0-13.88,0-20.83,0-1.15,0-1.44.37-1.42,1.44,0,3.3,0,6.61,0,9.92,0,1-.28,1.27-1.26,1.26-5.29,0-10.58,0-15.87-.06a2.51,2.51,0,0,1-1.66-.78,26.69,26.69,0,0,1-6.27-14.52,33.39,33.39,0,0,1,2.06-17.17c2.78-6.82,7.85-11.39,14.47-14.34a42.67,42.67,0,0,1,15.32-3.59c7.46-.38,14.72.46,21.58,3.59a26.76,26.76,0,0,1,15,17.47,41.81,41.81,0,0,1,1.33,15.9c-.08.94-.63.91-1.28.91Zm-12.3-12.3c3.2,0,6.39,0,9.59,0,.73,0,1.05-.2,1-1-.06-3.44-1.36-6.2-4.41-8a13.43,13.43,0,0,0-7.89-1.45c-5.4.37-8.49,3.41-9,8.73-.14,1.49,0,1.67,1.5,1.68Z"/><path class="cls-2" d="M450.63,81.45c0,.48.05.77.05,1.07,0,4.3,0,8.6,0,12.89,0,.86-.24,1.14-1.12,1.13-4.11,0-8.23,0-12.34,0-1.5,0-1.51,0-1.51,1.54q0,15.7,0,31.4c0,1.48,0,1.49-1.52,1.48-4.22,0-8.45,0-12.67,0-5.19-.06-8.42-2.36-9.79-7a15.29,15.29,0,0,1-.6-4.12q-.09-10.91,0-21.82c0-1.11-.29-1.46-1.41-1.43-2.64.08-5.29,0-7.93,0-.75,0-1-.22-1-1q0-6.56,0-13.11c0-.8.29-1,1-1,2.75,0,5.51,0,8.26,0,.82,0,1.08-.25,1.07-1.07,0-3.23,0-6.46,0-9.7,0-.75.21-1,1-1q11.29,0,22.59,0c.83,0,1.08.31,1.07,1.11,0,2.86,0,5.73,0,8.59,0,2.45-.13,2.08,2,2.09,3.86,0,7.71,0,11.57,0Z"/><path class="cls-2" d="M374.7,88.17c.27-.33.44-.51.57-.71a14.53,14.53,0,0,1,13.21-7.1,37.18,37.18,0,0,1,5.1.67,1.06,1.06,0,0,1,1,1.23q0,6.61,0,13.23c0,.84-.33,1-1.12,1.05a68.32,68.32,0,0,0-7.7.22c-5.92.73-9.11,4.44-9.13,10.42,0,7.42,0,14.84,0,22.27,0,1.5,0,1.5-1.49,1.5-7.35,0-14.7,0-22,0-1,0-1.39-.28-1.39-1.36q0-23.42,0-46.85c0-1.09.34-1.34,1.38-1.34q10.14.07,20.28,0c1,0,1.3.23,1.25,1.22-.08,1.54,0,3.09,0,4.63A8,8,0,0,0,374.7,88.17Z"/></g></svg>