<svg xmlns="http://www.w3.org/2000/svg" viewBox="0 0 800 200"><defs><style>.cls-1{fill:#f5f5f5;}.cls-2{fill:#0071c5;}</style></defs><title>Le point copie</title><g id="BG"><rect class="cls-1" width="800" height="200"/></g><g id="LE_POINT" data-name="LE POINT"><g id="g4421"><path id="path4423" class="cls-2" d="M363,93v29.07h-9.25V85.53l19.1,0c8.11,0,10.88,5.72,10.88,10.92v25.6h-9.24V96.52c0-2.18-1.13-3.52-3.85-3.52H363ZM426,92.56a7.09,7.09,0,0,0-6.63,3.83,9.47,9.47,0,0,0-.89,4h14.24c-.18-4-2-7.8-6.72-7.8m-7.52,14.09c0,4.73,2.94,8.22,8.19,8.22a10.4,10.4,0,0,0,8.48-3.48l5.71,5.46c-3.66,3.61-7.5,5.81-14.26,5.81-8.86,0-17.33-4.83-17.33-18.91,0-12,7.4-18.84,17.13-18.84s15.55,8,15.55,18.41v3.33H418.43m-17,15.36c-7.54,0-10.74-5.25-10.74-10.43v-36h9.24v10h7V93h-7v18c0,2.12,1,3.3,3.21,3.3h3.76V122h-5.47M345.55,80.48h-9.32V71.63h9.32Zm0,42c-7-.67-9.35-4.9-9.35-9.79V85.53h9.34v36.92Zm111-.78c-7-.67-9.32-4.9-9.32-9.77V70.37h9.32Zm32.6-45.3c-8.45-41.2-88.42-43.81-140-12.43v3.46C400.73,40.95,473.76,41.1,480.42,79c2.23,12.55-4.84,25.63-17.47,33.15V122c15.2-5.56,30.79-23.59,26.26-45.66m-93.7,72.08c-35.57,3.29-72.65-1.88-77.83-29.67-2.54-13.7,3.7-28.23,12-37.25V76.7c-14.91,13.07-23,29.62-18.34,49.18,5.95,25.08,37.76,39.29,86.32,34.57,19.21-1.88,44.36-8.05,61.85-17.65V129.17c-15.86,9.45-42.12,17.26-64,19.28"/><path id="path4425" class="cls-2" d="M467.39,73.13c0-.45-.26-.6-.87-.6h-.58v1.28l.58,0c.6,0,.87-.2.87-.62v-.07Zm.91,3.17h-.69a.16.16,0,0,1-.14-.09l-.94-1.6a.21.21,0,0,0-.13-.07H466v1.58a.17.17,0,0,1-.17.18h-.62a.18.18,0,0,1-.16-.18v-4c0-.23.09-.33.29-.36s.82,0,1.14,0c1.15,0,1.84.34,1.84,1.42v.07a1.14,1.14,0,0,1-.85,1.19l1,1.65a.67.67,0,0,1,0,.12.13.13,0,0,1-.15.14M466.66,71a3.08,3.08,0,1,0,3.08,3.09A3.09,3.09,0,0,0,466.66,71m0,6.8a3.71,3.71,0,1,1,3.72-3.71,3.7,3.7,0,0,1-3.72,3.71"/></g></g></svg>