<svg xmlns="http://www.w3.org/2000/svg" viewBox="0 0 800 200"><defs><style>.cls-1{fill:#f5f5f5;}.cls-2{fill:#b51700;}.cls-3{fill:#fff;}</style></defs><title>Le point</title><g id="BG"><rect class="cls-1" width="800" height="200"/></g><g id="LE_POINT" data-name="LE POINT"><path class="cls-2" d="M541.43,133.53H258.57V66.47H541.43c0,.29,0,.59,0,.88q0,32.65,0,65.3C541.4,132.94,541.42,133.24,541.43,133.53Z"/><path class="cls-3" d="M379.68,120.25c-1,0-1.92,0-2.84,0s-1.14-.29-1.13-1.12c0-3.06,0-6.12,0-9.18,0-.75.28-.94,1-.94,1.7,0,3.4,0,5.08-.11,8.35-.74,14.71-6.39,14.12-15.43a12.57,12.57,0,0,0-6.78-10.93,22.57,22.57,0,0,0-10.77-2.46c-5.68-.06-11.36,0-17,0-.35,0-.7,0-1,.05V84c.91,0,1.76,0,2.59,0s1.38.32,1.38,1.35q0,16.81,0,33.63c0,1.07-.44,1.36-1.39,1.31s-1.73,0-2.58,0v3.87h19.43Zm89.71-24.82c0-1.37,0-2.48,0-3.58s-.34-1.45-1.4-1.44c-4.09,0-8.19,0-12.28,0a7.14,7.14,0,0,0-.74.08v3.82h2.29c1.6,0,1.63,0,1.63,1.6q0,13.39,0,26.78v1.43h11.46c0-.53,0-1,0-1.47,0-5.46,0-10.92.16-16.37a12.63,12.63,0,0,1,1.28-4.73A4.72,4.72,0,0,1,477,99.22a4,4,0,0,1,3.37,3.51,17.69,17.69,0,0,1,.43,3.5c0,5.53,0,11.07,0,16.6,0,.43,0,.85,0,1.27h15.27v-3.84c-.9,0-1.75,0-2.59,0-1.07.07-1.4-.38-1.39-1.43,0-5,.05-10,0-15a23.71,23.71,0,0,0-.43-4.5c-.8-3.91-2.69-7.11-6.56-8.71-4.71-1.94-11.84-1.23-15.31,4.33C469.74,95,469.64,95.12,469.39,95.42Zm-54.29,29.5a18.46,18.46,0,0,0,10.59-3c4.67-3.11,6.91-7.65,7.27-13.13.39-6-1.2-11.34-6-15.32-5.73-4.74-15.6-5.19-22.05-1.26-9.38,5.7-9.78,19.72-3.93,26.6C404.68,123.22,409.55,124.88,415.1,124.92ZM325.91,111h1.54c6.23,0,12.46,0,18.69,0,.89,0,1.29-.23,1.2-1.17-.22-2.42-.21-4.87-.65-7.25-.82-4.42-2.84-8.22-6.77-10.7A16,16,0,0,0,329.2,89.8a15.22,15.22,0,0,0-11.92,7.43,19.23,19.23,0,0,0-2.43,13.2c.83,5.51,3.56,9.85,8.61,12.37,6.94,3.47,13.93,2.51,20.85-.22a.88.88,0,0,0,.42-.67c0-2.54,0-5.07,0-7.71l-.81.29c-2.05.68-4.07,1.51-6.17,2a11.86,11.86,0,0,1-8.4-.82A6.35,6.35,0,0,1,325.91,111Zm-44.59-26h2.28c1.58,0,1.68.1,1.68,1.7q0,12.06,0,24.11c0,2.69,0,5.38,0,8.07,0,1-.33,1.44-1.36,1.37-.84-.05-1.68,0-2.6,0v3.81c.31,0,.53.07.75.07q15.32,0,30.64,0c.78,0,1-.26,1-1q0-5.47,0-10.95c0-.74-.19-1-1-1-2.89,0-2.92-.07-3,2.81,0,.9-.34,1.26-1.24,1.25-2.1,0-4.2,0-6.3,0h-5.28a2.64,2.64,0,0,1-.13-.52q0-14.27,0-28.53c0-.79.39-1.14,1.16-1.13s1.83,0,2.8,0V81.27H281.32Zm229.91-5.51c-3.45,1.16-6.68,2.29-9.93,3.32a1.26,1.26,0,0,0-1.06,1.47c.06,2,0,4,0,6.06h-6.33v3.91h4.48c1.57,0,1.65.07,1.65,1.6,0,3,0,6,0,9.07,0,3.68,0,7.38.25,11,.32,4.69,2.82,7.49,7.33,8.49a27.86,27.86,0,0,0,10.54-.15.71.71,0,0,0,.47-.48c0-2.35,0-4.69,0-7.09-1.21.09-2.27.22-3.33.24-2.6,0-3.84-1-3.93-3.55-.17-4.86-.13-9.73-.2-14.59,0-.74.47-.71,1-.71,1.84,0,3.69,0,5.53,0,.72,0,1-.25,1-1q-.05-2.93,0-5.86c0-.72-.23-1-1-1-1.7,0-3.4-.05-5.09,0-1.1.06-1.46-.24-1.42-1.4C511.29,86,511.23,82.86,511.23,79.55ZM434.6,124.1H454c0-.49,0-.89,0-1.29,0-2.53,0-2.53-2.55-2.56-1.44,0-1.55-.13-1.55-1.6q0-13.44,0-26.88V90.51H434.63v3.81c.91,0,1.75,0,2.59,0s1.4.28,1.4,1.31q0,11.67,0,23.34c0,1-.35,1.34-1.3,1.3s-1.79,0-2.72,0Zm3-42.86A6.35,6.35,0,1,0,444.11,75,6.29,6.29,0,0,0,437.64,81.24Z"/><path class="cls-3" d="M379.68,120.25v3.87H360.26v-3.87c.86,0,1.72,0,2.58,0s1.39-.25,1.39-1.31q0-16.81,0-33.63c0-1-.41-1.39-1.38-1.35s-1.68,0-2.59,0V80.13c.34,0,.69-.05,1-.05,5.68,0,11.36,0,17,0a22.57,22.57,0,0,1,10.77,2.46,12.57,12.57,0,0,1,6.78,10.93c.59,9-5.78,14.69-14.12,15.43-1.69.15-3.39.11-5.08.11-.69,0-1,.19-1,.94,0,3.06,0,6.12,0,9.18,0,.83.36,1.13,1.13,1.12S378.68,120.25,379.68,120.25Zm-3.89-19.82c1.16,0,2.27.07,3.36,0,3.16-.25,5-2.17,5.31-5.46a5.35,5.35,0,0,0-4-6.06,34.42,34.42,0,0,0-4.64-.46Z"/><path class="cls-3" d="M469.39,95.42c.25-.3.35-.4.42-.52,3.47-5.56,10.6-6.27,15.31-4.33,3.87,1.6,5.76,4.79,6.56,8.71a23.71,23.71,0,0,1,.43,4.5c.05,5,0,10,0,15,0,1,.31,1.5,1.39,1.43.84-.06,1.68,0,2.59,0v3.84H480.82c0-.42,0-.84,0-1.27,0-5.53,0-11.07,0-16.6a17.69,17.69,0,0,0-.43-3.5A4,4,0,0,0,477,99.22a4.72,4.72,0,0,0-5.19,2.34,12.63,12.63,0,0,0-1.28,4.73c-.18,5.45-.13,10.92-.16,16.37,0,.47,0,.94,0,1.47H458.9V122.7q0-13.39,0-26.78c0-1.57,0-1.6-1.63-1.6H455V90.49a7.14,7.14,0,0,1,.74-.08c4.09,0,8.19,0,12.28,0,1.07,0,1.46.4,1.4,1.44S469.39,94.05,469.39,95.42Z"/><path class="cls-3" d="M415.1,124.92c-5.56,0-10.42-1.7-14.13-6.06-5.85-6.89-5.46-20.9,3.93-26.6,6.46-3.92,16.33-3.48,22.05,1.26,4.8,4,6.39,9.31,6,15.32-.36,5.48-2.6,10-7.27,13.13A18.46,18.46,0,0,1,415.1,124.92Zm6.61-17.08a13.78,13.78,0,0,0-1.44-6.7,5.67,5.67,0,0,0-5.26-3,5.41,5.41,0,0,0-5.13,3,13.12,13.12,0,0,0,0,12.21,5.43,5.43,0,0,0,5.32,3.08,5.62,5.62,0,0,0,5.18-3.16A12.06,12.06,0,0,0,421.71,107.84Z"/><path class="cls-3" d="M325.91,111a6.35,6.35,0,0,0,3.45,4.61,11.86,11.86,0,0,0,8.4.82c2.1-.48,4.12-1.31,6.17-2l.81-.29c0,2.64,0,5.17,0,7.71a.88.88,0,0,1-.42.67c-6.92,2.73-13.91,3.69-20.85.22-5.05-2.53-7.78-6.87-8.61-12.37a19.23,19.23,0,0,1,2.43-13.2A15.22,15.22,0,0,1,329.2,89.8a16,16,0,0,1,10.73,2.14c3.93,2.48,6,6.27,6.77,10.7.44,2.37.42,4.83.65,7.25.09.94-.31,1.18-1.2,1.17-6.23,0-12.46,0-18.69,0Zm-.15-7.3c3.5,0,6.92,0,10.34,0a1.2,1.2,0,0,0,.78-.88c-.42-4.18-3.22-6.07-6.78-5.25C327.66,98.14,326.1,100.38,325.77,103.75Z"/><path class="cls-3" d="M281.32,85.06V81.27h19.44v3.79c-1,0-1.88,0-2.8,0s-1.16.33-1.16,1.13q0,14.27,0,28.53a2.64,2.64,0,0,0,.13.52h5.28c2.1,0,4.2,0,6.3,0,.9,0,1.23-.34,1.24-1.25,0-2.88.06-2.85,3-2.81.8,0,1,.31,1,1q0,5.47,0,10.95c0,.76-.22,1-1,1q-15.32,0-30.64,0c-.22,0-.44,0-.75-.07v-3.81c.92,0,1.76,0,2.6,0,1,.07,1.37-.39,1.36-1.37,0-2.69,0-5.38,0-8.07q0-12.06,0-24.11c0-1.59-.11-1.69-1.68-1.7Z"/><path class="cls-3" d="M511.23,79.55c0,3.3.06,6.4,0,9.49,0,1.16.33,1.45,1.42,1.4,1.69-.09,3.39,0,5.09,0,.73,0,1,.24,1,1q-.05,2.93,0,5.86c0,.72-.23,1-1,1-1.84,0-3.69,0-5.53,0-.49,0-1,0-1,.71.07,4.86,0,9.73.2,14.59.09,2.59,1.33,3.59,3.93,3.55,1.06,0,2.12-.15,3.33-.24,0,2.4,0,4.75,0,7.09a.71.71,0,0,1-.47.48,27.86,27.86,0,0,1-10.54.15c-4.51-1-7-3.8-7.33-8.49-.25-3.67-.21-7.36-.25-11,0-3,0-6,0-9.07,0-1.53-.08-1.6-1.65-1.6h-4.48V90.4h6.33c0-2.11,0-4.09,0-6.06a1.26,1.26,0,0,1,1.06-1.47C504.55,81.84,507.78,80.72,511.23,79.55Z"/><path class="cls-3" d="M434.6,124.1v-3.85c.92,0,1.82,0,2.72,0s1.3-.34,1.3-1.3q0-11.67,0-23.34c0-1-.42-1.38-1.4-1.31s-1.68,0-2.59,0V90.51h15.28v1.26q0,13.44,0,26.88c0,1.47.11,1.58,1.55,1.6,2.56,0,2.56,0,2.55,2.56,0,.4,0,.8,0,1.29Z"/><path class="cls-3" d="M437.64,81.24a6.35,6.35,0,0,1,12.7.14,6.35,6.35,0,1,1-12.7-.14Z"/><path class="cls-2" d="M375.79,100.42v-12a34.42,34.42,0,0,1,4.64.46,5.35,5.35,0,0,1,4,6.06c-.31,3.28-2.14,5.2-5.31,5.46C378.06,100.5,377,100.42,375.79,100.42Z"/><path class="cls-2" d="M421.71,107.84a12.06,12.06,0,0,1-1.36,5.43,5.62,5.62,0,0,1-5.18,3.16,5.43,5.43,0,0,1-5.32-3.08,13.12,13.12,0,0,1,0-12.21,5.41,5.41,0,0,1,5.13-3,5.67,5.67,0,0,1,5.26,3A13.78,13.78,0,0,1,421.71,107.84Z"/><path class="cls-2" d="M325.77,103.75c.34-3.37,1.9-5.61,4.35-6.17,3.55-.82,6.36,1.08,6.78,5.25a1.2,1.2,0,0,1-.78.88C332.69,103.77,329.26,103.75,325.77,103.75Z"/></g></svg>