<svg xmlns="http://www.w3.org/2000/svg" viewBox="0 0 800 200"><defs><style>.cls-1{fill:#f5f5f5;}.cls-2{fill:#010101;}.cls-3{fill:#fd0101;}</style></defs><title>MK2</title><g id="BG"><rect class="cls-1" width="800" height="200"/></g><g id="MK2"><path class="cls-2" d="M382.85,137.9a11.52,11.52,0,0,1-11.71-13c.78-6.73,1.83-13.42,2.77-20.13,1.06-7.52,2.18-15,3.19-22.55.49-3.64-1.47-6.27-4.86-6.7a7.52,7.52,0,0,0-5.08,1.58c-3.69,2.42-6.44,5.83-9.42,9a12.6,12.6,0,0,0-3.23,7.46c-1.66,12.53-3.52,25-5.31,37.54-.19,1.32-.4,2.65-.53,4-.06.56-.28.72-.81.72-4,0-8,0-12.05,0-1,0-.73-.58-.65-1.11q1-6.92,1.95-13.84L340.86,94c.55-3.93,1.1-7.86,1.67-11.79.67-4.64-3.33-7.9-7.69-6.16-3.36,1.34-5.92,3.81-8.39,6.36-2,2-3.59,4.3-5.35,6.49-.69.86-.55,1.89-.69,2.84q-2.1,14.4-4.12,28.82c-.65,4.61-1.31,9.22-1.91,13.84-.14,1.07-.43,1.5-1.63,1.47-3.67-.1-7.34-.06-11,0-.91,0-1.19-.19-1.05-1.14q2.58-18,5.09-36c.86-6.15,1.73-12.3,2.56-18.46a4.39,4.39,0,0,0-4.89-4.69,5.92,5.92,0,0,0-5.12,4.8,47.87,47.87,0,0,0-.73,5c-.08.85-.31,1.17-1.22,1.16-2.49,0-2.44,0-2.22-2.47.39-4.29,1.35-8.35,4.42-11.6,3.67-3.89,8.07-6.06,13.52-5.32,6.09.83,10,5.4,10,11.56,0,.28,0,.56,0,1.08,1.41-1.63,2.65-3.1,3.94-4.53,3.21-3.55,6.72-6.72,11.22-8.56,9-3.65,18,1.93,18.88,11.58,0,.56.1,1.11.18,2,1.07-1.29,2-2.37,2.91-3.49a32.07,32.07,0,0,1,12.52-10c6.77-2.87,14-.64,17.36,5.29a14.83,14.83,0,0,1,1.78,5.76c0,.86,0,1.73-.16,2.58-.9,6.58-1.83,13.15-2.75,19.73q-1.89,13.58-3.77,27.16C383.76,130.8,383.31,134.35,382.85,137.9Z"/><path class="cls-3" d="M382.85,137.9c.47-3.55.91-7.09,1.4-10.64q1.87-13.58,3.77-27.16c.92-6.58,1.85-13.15,2.75-19.73.12-.85.11-1.72.16-2.58a20.07,20.07,0,0,0,.88-5c1.4-9.86,2.74-19.74,4.1-29.61,3.14-.25,6.28,0,9.42-.11,1.42,0,2.84,0,4.26,0-.36,4.3-1.12,8.55-1.71,12.82-1.32,9.62-2.68,19.22-4,28.83q-1.1,7.82-2.21,15.63c-.08.59-.14,1.19-.24,2.05l26.78-16.74a9,9,0,0,1-3.32-4.77c-1.35-5.51,2.72-11.77,8.57-13.18a8.64,8.64,0,0,1,10.83,9.67c0,.24-.24.49,0,.71l0,0c-.32-.14-.23.1-.24.25-.67,2-2,3.63-3,5.43-.32-.13-.47.14-.64.31A22,22,0,0,1,436.64,87q-10.75,6.82-21.48,13.68c-.45.29-1.08.4-.61,1.31q6.71,12.88,13.32,25.83a4.74,4.74,0,0,0,3.26,2.52,6.34,6.34,0,0,0,7.49-4.72c.17-.84.27-1.7.41-2.55.42-2.57.42-2.55,3-2.5.71,0,1,.1.82.93-.39,2.42-.63,4.87-1.15,7.27a18.74,18.74,0,0,1-6.3,8.43,19,19,0,0,1-6.27,2.61c-5.7,1-10-1.2-13.33-5.71-2.43-3.32-3.88-7.19-5.7-10.84-3-6-5.9-12.06-8.84-18.1,0-.07-.12-.12-.28-.28-.43,3-.86,5.94-1.26,8.88q-1.6,11.53-3.18,23.06c-.11.78-.31,1.18-1.25,1.16C391.13,137.87,387,137.9,382.85,137.9Z"/><path class="cls-2" d="M441.07,83.74c1-1.8,2.34-3.43,3-5.43.14,0,.29,0,.24-.25l0,0c1-1,2-2,3.11-2.86C453.68,70.1,461,67.82,469,67.3a30.87,30.87,0,0,1,16.91,3.29c10,5.33,11.11,17.39,6.46,24.65a52,52,0,0,1-11.07,11.89,152.8,152.8,0,0,1-25.43,16.54,1.24,1.24,0,0,0-.61.57h1.33q16.91,0,33.83,0c1,0,1.31.11,1.12,1.24-.63,3.79-1.14,7.59-1.63,11.4-.12.92-.66.82-1.27.82H455.47c-6.31,0-12.61,0-18.92,0-.4,0-1.12.42-1.15-.52a18.74,18.74,0,0,0,6.3-8.43c2.69-2.09,5.38-4.17,8.06-6.28,6.92-5.44,13.93-10.78,19.94-17.27,3.48-3.75,6.64-7.72,8.48-12.57,2.68-7,0-14-6.63-16.34A19.82,19.82,0,0,0,454.28,78c-.27.15-.69.23-.64.7a7.22,7.22,0,0,1,5.28,6.37c.82,6.29-5.76,12.62-12,11.56a7.76,7.76,0,0,1-6.81-7.71A15.39,15.39,0,0,1,441.07,83.74Z"/></g></svg>